<?xml version="1.0" standalone="no"?>
<!DOCTYPE svg PUBLIC "-//W3C//DTD SVG 20010904//EN"
 "http://www.w3.org/TR/2001/REC-SVG-20010904/DTD/svg10.dtd">
<svg version="1.0" xmlns="http://www.w3.org/2000/svg"
 width="688.000000pt" height="688.000000pt" viewBox="0 0 688.000000 688.000000"
 preserveAspectRatio="xMidYMid meet">
<metadata>
Created by potrace 1.14, written by Peter Selinger 2001-2017
</metadata>
<g transform="translate(0.000000,688.000000) scale(0.100000,-0.100000)"
fill="#000000" stroke="none">
<path d="M858 6555 c-2 -2 -21 -6 -42 -9 -59 -9 -88 -17 -117 -32 l-26 -13 0
-733 c-1 -656 -4 -839 -19 -911 -2 -12 -6 -35 -8 -52 -19 -145 -99 -276 -195
-321 -141 -65 -189 -93 -231 -134 -45 -45 -93 -118 -105 -163 -3 -12 -10 -31
-15 -42 -5 -11 -16 -45 -24 -75 -15 -54 -19 -75 -31 -154 -4 -21 -8 -46 -10
-55 -1 -9 -6 -45 -10 -81 -3 -36 -9 -83 -12 -105 -3 -22 -8 -729 -10 -1572
l-4 -1532 21 -11 c12 -7 50 -21 83 -31 34 -11 69 -23 77 -26 18 -7 6 -4 150
-42 63 -16 131 -32 151 -35 20 -3 42 -8 50 -10 8 -3 30 -7 49 -10 19 -3 46 -8
60 -10 30 -6 93 -14 180 -23 90 -9 387 -10 490 -1 101 9 164 19 286 47 86 19
110 26 144 39 8 3 17 6 20 7 48 13 174 62 222 86 l37 19 -3 1512 c-2 832 -6
1531 -9 1553 -3 22 -8 74 -12 115 -3 41 -12 111 -20 155 -13 74 -17 94 -29
150 -9 44 -38 123 -67 182 -41 84 -108 150 -194 192 -140 67 -170 84 -202 116
-31 31 -85 130 -90 165 -1 8 -6 33 -12 55 -9 39 -16 79 -27 166 -3 24 -7 386
-9 804 -1 418 -3 763 -4 768 0 4 -9 7 -19 7 -10 0 -22 4 -28 9 -20 18 -146 35
-286 37 -81 1 -148 1 -150 -1z"/>
<path d="M2650 6105 c-148 -61 -300 -157 -389 -245 -75 -74 -98 -114 -79 -138
17 -22 20 -26 78 -104 28 -37 50 -71 50 -77 0 -5 4 -11 8 -13 8 -3 41 -48 320
-438 144 -200 142 -197 177 -244 17 -23 38 -52 47 -66 10 -14 34 -47 53 -75
177 -248 267 -414 279 -516 1 -14 5 -30 8 -35 18 -33 -15 -155 -63 -233 -33
-54 -68 -131 -75 -164 -6 -32 -7 -143 0 -164 3 -10 7 -29 10 -43 8 -49 49
-157 95 -250 103 -208 212 -378 509 -790 105 -146 208 -289 229 -319 21 -29
44 -59 51 -67 6 -7 12 -15 12 -18 0 -3 7 -14 15 -23 8 -10 81 -110 161 -223
122 -169 315 -438 378 -525 25 -34 313 -436 369 -513 28 -40 70 -97 92 -127
22 -30 56 -77 75 -104 33 -48 37 -50 70 -45 42 7 294 91 332 110 15 8 30 14
33 14 12 0 267 123 350 168 54 31 239 154 300 201 98 76 105 82 219 197 117
117 141 143 168 185 9 14 23 32 30 40 21 22 103 150 128 198 l22 44 -23 31
c-65 88 -225 310 -234 324 -5 9 -12 19 -15 22 -3 3 -39 52 -80 110 -41 58 -78
110 -83 115 -18 22 -173 238 -182 253 -5 9 -13 19 -16 22 -3 3 -39 52 -80 110
-40 58 -77 107 -81 108 -5 2 -8 10 -8 17 0 7 -3 15 -7 17 -5 2 -48 59 -98 128
-49 69 -92 127 -95 130 -3 3 -9 12 -15 21 -37 59 -89 129 -96 129 -5 0 -9 5
-9 11 0 9 -87 133 -187 268 -10 13 -31 42 -48 66 -50 71 -149 209 -157 220 -5
6 -51 69 -104 140 -276 374 -507 604 -674 671 -110 44 -163 46 -310 12 -64
-15 -108 -16 -159 -5 -110 23 -252 145 -410 352 -17 22 -34 45 -39 50 -4 6
-48 66 -97 135 -49 69 -91 127 -94 130 -4 3 -10 12 -16 21 -11 18 -124 177
-138 194 -4 6 -48 66 -97 135 -49 69 -93 130 -97 135 -5 6 -31 42 -58 80 -27
39 -59 84 -72 100 -32 41 -33 43 -78 108 -22 32 -42 60 -45 62 -3 2 -30 -7
-60 -20z"/>
</g>
</svg>
